<svg width="16" height="16" viewBox="0 0 16 16" fill="none" xmlns="http://www.w3.org/2000/svg">
<path d="M4.75 11.5H2.05C1.88431 11.5 1.75 11.3657 1.75 11.2V6.25C1.75 5.42157 2.42157 4.75 3.25 4.75H12.75C13.5784 4.75 14.25 5.42157 14.25 6.25V11.2C14.25 11.3657 14.1157 11.5 13.95 11.5H11.25" stroke="#333333" stroke-width="1.5"/>
<path d="M4.75 8.75H11.25V12.75C11.25 13.5784 10.5784 14.25 9.75 14.25H6.25C5.42157 14.25 4.75 13.5784 4.75 12.75V8.75Z" stroke="#333333" stroke-width="1.5"/>
<path d="M5 4.75H11V3.25C11 2.42157 10.3284 1.75 9.5 1.75H6.5C5.67157 1.75 5 2.42157 5 3.25V4.75Z" stroke="#333333" stroke-width="1.5"/>
</svg>
